<svg xmlns="http://www.w3.org/2000/svg"><symbol id="about" viewBox="0 0 200 200"><path fill="#fff" stroke="#262324" stroke-miterlimit="10" stroke-width="15" d="M22.8 191.1h154.4s-16.6-82.7-80-77.2c-65.6 5.7-74.4 77.2-74.4 77.2z"/><circle cx="103" cy="51.7" r="42.7" fill="#fff" stroke="#262324" stroke-miterlimit="10" stroke-width="15"/></symbol><symbol id="cart-empty" viewBox="0 0 200 200"><circle cx="86" cy="154" r="11.1" fill="none" stroke="#010101" stroke-linecap="round" stroke-linejoin="round" stroke-width="9"/><circle cx="157" cy="153.7" r="11.1" fill="none" stroke="#010101" stroke-linecap="round" stroke-linejoin="round" stroke-width="9"/><path fill="#fff" stroke="#010101" stroke-linecap="round" stroke-linejoin="round" stroke-width="9" d="M13.2 64.7l-.1-15.6 27.4-.1 30.6 82.1 95.4-.5 20.4-57.7-116.4.6"/></symbol><symbol id="cart-full" viewBox="0 0 200 200"><circle cx="88.7" cy="165" r="11.1" fill="none" stroke="#010101" stroke-linecap="round" stroke-linejoin="round" stroke-width="9"/><circle cx="159.7" cy="164.7" r="11.1" fill="none" stroke="#010101" stroke-linecap="round" stroke-linejoin="round" stroke-width="9"/><path fill="#010101" d="M126.54 88.928l10.991-43.121 36.319 9.257-10.992 43.121z"/><circle cx="165.4" cy="77.4" r="11.3" fill="none" stroke="#010101" stroke-miterlimit="10" stroke-width="9"/><path fill="#010101" d="M73.09 53.67l36.871-6.833 8.108 43.745-36.872 6.833z"/><circle cx="111.6" cy="70.5" r="11.3" fill="none" stroke="#010101" stroke-miterlimit="10" stroke-width="9"/><path fill="#fff" stroke="#010101" stroke-linecap="round" stroke-linejoin="round" stroke-width="9" d="M15.9 75.6l-.1-15.5 27.4-.1 30.6 82.1 95.4-.5 20.4-57.7-116.4.6"/></symbol><symbol id="facebook" viewBox="0 0 200 200"><path fill="#010101" stroke="#010101" stroke-linecap="round" stroke-linejoin="round" stroke-width="25" d="M152.2 184.4H48.7a32.2 32.2 0 0 1-32.1-32.2V48.7a32.2 32.2 0 0 1 32.1-32.1h103.5a32.3 32.3 0 0 1 32.2 32.1v103.5a32.3 32.3 0 0 1-32.2 32.2z"/><path fill="#fff" d="M140.6 91.6c.2 1.1 25.6 0 25.6 0v28.1h-24.9v78.9h-33.5v-78.9H92V92h16.2V66.4s4.7-24.5 27-24.8h29.9v26.6s-29.5-9.7-24.5 23.4z"/></symbol><symbol id="instagram" viewBox="0 0 200 200"><path fill="#010101" stroke="#010101" stroke-linecap="round" stroke-linejoin="round" stroke-width="25" d="M150.9 182.6H47.4a32.3 32.3 0 0 1-32.2-32.1V46.9a32.3 32.3 0 0 1 32.2-32.2h103.5a32.3 32.3 0 0 1 32.2 32.2v103.6a32.3 32.3 0 0 1-32.2 32.1z"/><circle cx="99.1" cy="108" r="40.2" fill="none" stroke="#fff" stroke-linecap="round" stroke-linejoin="round" stroke-width="10"/><circle cx="159.4" cy="42.8" r="14.2" fill="#fff"/></symbol><symbol id="shop" viewBox="0 0 200 200"><path fill="#fff" stroke="#262324" stroke-miterlimit="10" stroke-width="15" d="M158.1 191.9H42L32.3 46.8h135.5l-9.7 145.1z"/><path fill="none" stroke="#262324" stroke-linecap="round" stroke-linejoin="round" stroke-width="15" d="M61.3 38.2s38.7-67.7 77.4 0"/></symbol><symbol id="twitter" viewBox="0 0 200 200"><path fill="#010101" stroke="#010101" stroke-linecap="round" stroke-linejoin="round" stroke-width="25" d="M153.1 185.1H48.7a32.6 32.6 0 0 1-32.5-32.5V48.2a32.6 32.6 0 0 1 32.5-32.5h104.4a32.6 32.6 0 0 1 32.5 32.5v104.4a32.6 32.6 0 0 1-32.5 32.5z"/><path fill="#fff" d="M27.1 147s23.6 4 43.6-12.3c0 0-22.1-2.9-27.2-21.5 0 0 8 1.1 13.1-.3 0 0-22.6-5.8-23.7-29.8 0 0 7.3 3.2 12.7 2.9 0 0-20.7-16-8.7-40.4 0 0 24 31.3 62.9 31.3 0 0-4.7-22.9 14.5-33.1s36.8 4.7 36.8 4.7 8.7 1.1 19.2-6.1c0 0 .8 6.9-11.6 15.6 0 0 8.7.7 16-3.7 0 0-4.7 10.6-14.9 16 0 0 2.5 41.1-24 64.7s-66.2 37.1-108.7 12z"/></symbol></svg>