<svg xmlns="http://www.w3.org/2000/svg"><symbol id="cart-empty" viewBox="0 0 768 768"><g fill="none" stroke="#000" stroke-linecap="round" stroke-linejoin="round" stroke-width="25"><path d="M81.3 252.4l-.3-51 90-.4 100.4 269.5 313-1.6 67-189.3-382 1.9"/><circle cx="320.3" cy="545.7" r="36.5"/><circle cx="553.3" cy="544.6" r="36.5"/></g></symbol><symbol id="cart-full" viewBox="0 0 768 768"><circle cx="299.3" cy="545.7" r="36.5" fill="none" stroke="#000" stroke-linecap="round" stroke-linejoin="round" stroke-width="25"/><circle cx="532.3" cy="544.6" r="36.5" fill="none" stroke="#000" stroke-linecap="round" stroke-linejoin="round" stroke-width="25"/><path fill="#000001" d="M459.113 154.742l119.19 30.38L542.24 326.6l-119.189-30.381z"/><circle cx="550.9" cy="258.1" r="37.2" fill="none" stroke="#000" stroke-miterlimit="10" stroke-width="19"/><path fill="#000001" d="M247.886 180.176l120.94-22.415 26.606 143.555-120.94 22.415z"/><circle cx="374.5" cy="235.6" r="37.2" fill="none" stroke="#000" stroke-miterlimit="10" stroke-width="19"/><path fill="#fff" stroke="#000" stroke-linecap="round" stroke-linejoin="round" stroke-width="25" d="M60.3 252.4l-.3-51 90-.4 100.4 269.5 313-1.6 67-189.3-382 1.9"/></symbol><symbol id="instagram" viewBox="0 0 768 768"><rect width="466" height="466" x="133.3" y="145.5" fill="#000001" stroke="#000" stroke-linecap="round" stroke-linejoin="round" stroke-width="25" rx="89.3" ry="89.3"/><circle cx="366.3" cy="404.5" r="111.5" fill="none" stroke="#fff" stroke-linecap="round" stroke-linejoin="round" stroke-width="50"/><circle cx="533.5" cy="223.5" r="39.5" fill="#fff"/></symbol><symbol id="facebook" viewBox="0 0 768 768"><rect width="466" height="466" x="180.5" y="126.5" fill="#000001" stroke="#000" stroke-linecap="round" stroke-linejoin="round" stroke-width="25" rx="89.3" ry="89.3"/><path fill="#fff" d="M525 310c.5 3 71 0 71 0v78h-69v219h-93V388h-44v-77h45v-71s13-68 75-69h83v74s-82-27-68 65z"/></symbol><symbol id="search" viewBox="0 0 768 768"><path fill="red" stroke="#000" stroke-linecap="round" stroke-linejoin="round" stroke-width="40" d="M443 418.3l159.5 159.2"/><circle cx="315.9" cy="308.1" r="156" fill="none" stroke="#000" stroke-linecap="round" stroke-linejoin="round" stroke-width="40"/></symbol><symbol id="toggle-open" viewBox="0 0 768 768"><path fill="red" stroke="#000" stroke-linecap="round" stroke-linejoin="round" stroke-width="40" d="M252.6 522.4l243.3-243.3m-253-9.7l262.7 262.7"/></symbol><symbol id="twitter" viewBox="0 0 768 768"><rect width="466" height="466" x="141.4" y="133.4" fill="#000001" stroke="#000" stroke-linecap="round" stroke-linejoin="round" stroke-width="25" rx="89.3" ry="89.3"/><path fill="#fff" d="M171.4 494.8s65 11 120-34c0 0-61-8-75-59 0 0 22 3 36-1 0 0-62-16-65-82 0 0 20 9 35 8 0 0-57-44-24-111 0 0 66 86 173 86 0 0-13-63 40-91s101 13 101 13 24 3 53-17c0 0 2 19-32 43 0 0 24 2 44-10 0 0-13 29-41 44 0 0 7 113-66 178s-182 102-299 33z"/></symbol><symbol id="toggle-closed" viewBox="0 0 768 768"><path fill="red" stroke="#000" stroke-linecap="round" stroke-linejoin="round" stroke-width="40" d="M206 298.3h344M206 377h344m0 78.7H206"/></symbol></svg>