<svg xmlns="http://www.w3.org/2000/svg" width="2949.4" height="1268.7" viewBox="0 0 2949.4 1268.7"><title>icons</title><g id="Layer_1" data-name="Layer 1"><line x1="1717.5" y1="969.3" x2="2061.5" y2="969.3" fill="red" stroke="#000" stroke-linecap="round" stroke-linejoin="round" stroke-width="40"/><line x1="1717.5" y1="1048" x2="2061.5" y2="1048" fill="red" stroke="#000" stroke-linecap="round" stroke-linejoin="round" stroke-width="40"/><line x1="2061.5" y1="1126.7" x2="1717.5" y2="1126.7" fill="red" stroke="#000" stroke-linecap="round" stroke-linejoin="round" stroke-width="40"/><line x1="972.1" y1="1196.4" x2="1215.3" y2="953.1" fill="red" stroke="#000" stroke-linecap="round" stroke-linejoin="round" stroke-width="40"/><line x1="962.4" y1="943.4" x2="1225" y2="1206.1" fill="red" stroke="#000" stroke-linecap="round" stroke-linejoin="round" stroke-width="40"/><line x1="2741.4" y1="302.3" x2="2901" y2="461.5" fill="red" stroke="#000" stroke-linecap="round" stroke-linejoin="round" stroke-width="40"/><circle cx="2614.4" cy="192.1" r="156" fill="none" stroke="#000" stroke-linecap="round" stroke-linejoin="round" stroke-width="40"/></g><g id="Art"><polyline points="12.8 926.4 12.5 875.4 102.5 875 202.9 1144.5 515.9 1142.9 582.9 953.6 200.9 955.5" fill="none" stroke="#000" stroke-linecap="round" stroke-linejoin="round" stroke-width="25"/><circle cx="251.7" cy="1219.7" r="36.5" fill="none" stroke="#000" stroke-linecap="round" stroke-linejoin="round" stroke-width="25"/><circle cx="484.7" cy="1218.6" r="36.5" fill="none" stroke="#000" stroke-linecap="round" stroke-linejoin="round" stroke-width="25"/><circle cx="2605.7" cy="1218.7" r="36.5" fill="none" stroke="#000" stroke-linecap="round" stroke-linejoin="round" stroke-width="25"/><circle cx="2838.7" cy="1217.6" r="36.5" fill="none" stroke="#000" stroke-linecap="round" stroke-linejoin="round" stroke-width="25"/><rect x="2814.4" y="956.5" width="123" height="146" transform="translate(273.9 -793.1) rotate(14.3)"/><circle cx="2857.3" cy="931.1" r="37.2" fill="none" stroke="#000" stroke-miterlimit="10" stroke-width="19"/><rect x="2635.2" y="956.6" width="123" height="146" transform="translate(-211.2 393.8) rotate(-10.5)"/><circle cx="2680.9" cy="908.6" r="37.2" fill="none" stroke="#000" stroke-miterlimit="10" stroke-width="19"/><polyline points="2366.8 925.4 2366.5 874.4 2456.5 874 2556.9 1143.5 2869.9 1141.9 2936.9 952.6 2554.9 954.5" fill="#fff" stroke="#000" stroke-linecap="round" stroke-linejoin="round" stroke-width="25"/><rect x="1640.7" y="31.5" width="466" height="466" rx="89.3" ry="89.3" stroke="#000" stroke-linecap="round" stroke-linejoin="round" stroke-width="25"/><rect x="860.8" y="19.4" width="466" height="466" rx="89.3" ry="89.3" stroke="#000" stroke-linecap="round" stroke-linejoin="round" stroke-width="25"/><rect x="112" y="12.5" width="466" height="466" rx="89.3" ry="89.3" stroke="#000" stroke-linecap="round" stroke-linejoin="round" stroke-width="25"/><circle cx="1873.7" cy="290.5" r="111.5" fill="none" stroke="#fff" stroke-linecap="round" stroke-linejoin="round" stroke-width="50"/><circle cx="2041" cy="109.5" r="39.5" fill="#fff"/><path d="M959.4,496.8s65,11,120-34c0,0-61-8-75-59,0,0,22,3,36-1,0,0-62-16-65-82,0,0,20,9,35,8,0,0-57-44-24-111,0,0,66,86,173,86,0,0-13-63,40-91s101,13,101,13,24,3,53-17c0,0,2,19-32,43,0,0,24,2,44-10,0,0-13,29-41,44,0,0,7,113-66,178S1076.4,565.8,959.4,496.8Z" transform="translate(-68.5 -116)" fill="#fff"/><path d="M525,312c.5,3,71,0,71,0v78H527V609H434V390H390V313h45V242s13-68,75-69h83v74S511,220,525,312Z" transform="translate(-68.5 -116)" fill="#fff"/></g></svg>