<?xml version="1.0" encoding="utf-8"?>
<!-- Generator: Adobe Illustrator 22.1.0, SVG Export Plug-In . SVG Version: 6.00 Build 0)  -->
<svg version="1.1" id="Layer_1" xmlns="http://www.w3.org/2000/svg" xmlns:xlink="http://www.w3.org/1999/xlink" x="0px" y="0px"
	 viewBox="0 0 30.1 8.2" style="enable-background:new 0 0 30.1 8.2;" xml:space="preserve">
<path d="M2.1,0.2l2.1,5.7l2-5.7h2.1v7.9H6.7V5.9l0.2-3.7L4.7,8.1H3.6L1.4,2.2l0.2,3.7v2.2H0V0.2L2.1,0.2z M15.1,0.2v5.2
	c0,0.8-0.3,1.5-0.8,2c-0.6,0.5-1.4,0.8-2.2,0.8C11.3,8.3,10.5,8,9.8,7.5C9.3,6.9,9,6.2,9,5.4V0.2h1.6v5.2c0,0.4,0.1,0.8,0.4,1.1
	c0.3,0.3,0.7,0.4,1.1,0.4c0.9,0,1.3-0.5,1.4-1.5V0.2L15.1,0.2z M23.7,7.1c-0.3,0.3-0.8,0.6-1.2,0.8c-0.6,0.2-1.2,0.3-1.8,0.3
	c-0.6,0-1.2-0.1-1.8-0.4C18.4,7.5,18,7,17.7,6.4c-0.3-0.6-0.5-1.3-0.5-2V3.9c0-0.7,0.2-1.4,0.4-2.1c0.3-0.5,0.7-1,1.2-1.3
	C19.3,0.2,20,0,20.6,0c0.8,0,1.6,0.2,2.2,0.7c0.5,0.5,0.9,1.2,0.9,2h-1.6c0-0.4-0.2-0.8-0.5-1c-0.3-0.2-0.6-0.3-1-0.3
	c-0.5,0-1,0.2-1.3,0.6c-0.3,0.6-0.4,1.2-0.4,1.9v0.5c0,0.6,0.1,1.3,0.5,1.8c0.3,0.5,0.8,0.7,1.4,0.7c0.5,0.1,0.9-0.1,1.3-0.4V5.1
	h-1.5V3.9h3.1V7.1z M28.5,6c0-0.3-0.1-0.5-0.3-0.7c-0.4-0.2-0.8-0.4-1.2-0.5l-1.4-0.6c-0.8-0.3-1.3-1.1-1.3-1.9
	c0-0.4,0.1-0.9,0.4-1.2c0.2-0.4,0.6-0.6,1-0.8c0.5-0.2,1-0.3,1.5-0.3c1,0,2,0.4,2.6,1.2c0.2,0.4,0.3,0.8,0.3,1.3h-1.6
	c0-0.3-0.1-0.7-0.3-0.9c-0.3-0.2-0.6-0.3-1-0.3c-0.3,0-0.7,0.1-0.9,0.3c-0.2,0.1-0.4,0.4-0.4,0.7c0,0.2,0.2,0.4,0.4,0.6
	c0.4,0.2,0.8,0.4,1.2,0.5c0.7,0.2,1.4,0.5,2,1c0.4,0.4,0.6,1,0.6,1.6c0,0.6-0.2,1.2-0.7,1.6C28.8,8,28,8.2,27.3,8.2
	c-0.6,0-1.2-0.1-1.7-0.3c-0.5-0.3-0.9-0.6-1.2-1C24.1,6.5,24,6.1,24,5.6h1.7c0,0.9,0.5,1.3,1.6,1.3l0.9-0.2
	C28.4,6.5,28.5,6.3,28.5,6z"/>
<path d="M14.7,2.6c0,0,1.3-0.1,1.3,1.1c0,0.7-0.5,1.2-1.2,1.2c0,0-0.1,0-0.1,0v0.9c0,0,2.4,0.2,2.4-2.1s-2.4-2.2-2.4-2.2L14.7,2.6z"
	/>
</svg>
