<svg xmlns="http://www.w3.org/2000/svg" viewBox="0 0 60.3 16.4" width="60.3" height="16.4"><path d="M4.3.2l4 11.6L12.4.2h4.3v15.9h-3.3v-4.3l.4-7.5-4.3 11.8H7.2L2.9 4.3l.4 7.5v4.3H0V.2h4.3zm26 0v10.5c.1 1.5-.6 3-1.7 4.1-1.2 1.1-2.8 1.6-4.4 1.6-1.6.1-3.2-.4-4.5-1.5-1.1-1.1-1.6-2.6-1.6-4.1V.2h3.2v10.5c-.1.8.2 1.7.8 2.3.6.5 1.3.8 2.1.7 1.8 0 2.7-.9 2.8-2.9V.2h3.3zm17.2 13.9c-.7.8-1.5 1.4-2.5 1.7-1.2.4-2.4.6-3.6.6-2.5 0-4.9-1.4-6-3.6-.6-1.3-.9-2.6-.9-4V7.7c0-1.4.3-2.8.8-4.1.5-1.1 1.4-2.1 2.4-2.7C38.8.3 40 0 41.2 0c1.6-.1 3.2.4 4.4 1.4 1.1 1 1.8 2.4 1.9 3.9h-3.2c-.1-.7-.4-1.5-.9-2-.6-.4-1.4-.6-2.1-.6-1 0-2 .4-2.6 1.2-.6 1.2-.9 2.5-.8 3.8v1c-.1 1.3.2 2.6.9 3.7.6.9 1.7 1.4 2.8 1.3.9.1 1.9-.2 2.6-.8v-2.7h-3V7.8h6.3v6.3zm9.6-2.1c0-.6-.3-1.1-.7-1.5-.8-.4-1.6-.8-2.4-1-.9-.3-1.8-.7-2.7-1.1-1.8-1-2.7-2.3-2.7-3.9 0-.8.3-1.6.8-2.3.5-.8 1.2-1.3 2.1-1.6 1.9-.8 4.1-.8 6 0 .8.4 1.6 1 2.1 1.8.5.7.7 1.6.7 2.5h-3.2c0-.6-.3-1.2-.7-1.7-1.1-.8-2.6-.8-3.8-.1-.5.3-.7.8-.7 1.4 0 .5.3 1 .8 1.3.7.4 1.5.8 2.3 1 1.5.3 2.9 1 4.1 2 .8.8 1.2 2 1.2 3.1.1 1.3-.5 2.5-1.5 3.3-1.2.8-2.7 1.3-4.2 1.2-1.2 0-2.3-.3-3.4-.7-.9-.4-1.7-1.1-2.3-1.9-.5-.8-.8-1.7-.8-2.7h3.3c0 1.8 1.1 2.7 3.2 2.7.6 0 1.3-.1 1.8-.5.4-.3.7-.8.7-1.3z"/><path d="M29.5 5.1c1.2-.2 2.3.7 2.5 1.9v.4c.1 1.2-.9 2.3-2.1 2.3h-.4v1.9s4.7.3 4.7-4.2S29.5 3 29.5 3v2.1z"/></svg>