<svg id="Layer_1" data-name="Layer 1" xmlns="http://www.w3.org/2000/svg" width="256" height="256" viewBox="0 0 256 256"><title>logo-256</title><path d="M25.2,96.4l16.3,46,16.2-46H74.9v63.4H61.8V142.5l1.3-29.9L46,159.8H37L19.9,112.6l1.3,29.9v17.3H8.2V96.4Z"/><path d="M129,96.4v41.8c0,6.9-2.2,12.4-6.5,16.5s-10.3,6-17.8,6-13.3-1.9-17.7-5.9-6.5-9.3-6.6-16.1V96.4h13v41.9c0,4.1,1,7.2,3,9.1s4.8,2.8,8.3,2.8c7.3,0,11.1-3.9,11.2-11.6V96.4Z"/><path d="M197.9,151.8a23.7,23.7,0,0,1-10,6.6,43.3,43.3,0,0,1-14.3,2.3,28,28,0,0,1-14.4-3.6,23.6,23.6,0,0,1-9.6-10.4,36.7,36.7,0,0,1-3.5-16.1v-4.3a39.8,39.8,0,0,1,3.2-16.5,23.5,23.5,0,0,1,9.3-10.6,26,26,0,0,1,14.1-3.7c7.5,0,13.4,1.8,17.6,5.4s6.8,8.8,7.6,15.7H185.2c-.6-3.7-1.9-6.3-3.9-8s-4.7-2.5-8.2-2.5-7.8,1.6-10.2,5-3.5,8.3-3.5,14.9v4c0,6.7,1.3,11.7,3.8,15.1s6.2,5.1,11.1,5.1,8.4-1,10.5-3.1v-11H172.9v-9.6h25Z"/><path d="M236,143.2a6.5,6.5,0,0,0-2.6-5.7c-1.7-1.3-4.9-2.7-9.4-4.2a67,67,0,0,1-10.8-4.3c-7.2-3.9-10.8-9.2-10.8-15.7a15.5,15.5,0,0,1,2.9-9.2,19.2,19.2,0,0,1,8.3-6.3,31.9,31.9,0,0,1,12.2-2.3A27.3,27.3,0,0,1,237.9,98a18.9,18.9,0,0,1,8.3,6.9,17.9,17.9,0,0,1,2.9,10.2h-13a8.5,8.5,0,0,0-2.8-6.8c-1.8-1.6-4.4-2.4-7.7-2.4s-5.7.7-7.4,2.1a6.2,6.2,0,0,0-2.7,5.3,6,6,0,0,0,3.1,5.2,35.6,35.6,0,0,0,9.2,3.9c7.4,2.2,12.8,5,16.2,8.3a16.7,16.7,0,0,1,5.1,12.4c0,5.5-2,9.8-6.2,12.9s-9.7,4.7-16.8,4.7a32.3,32.3,0,0,1-13.3-2.7,21.3,21.3,0,0,1-9.2-7.3,18.8,18.8,0,0,1-3.1-10.8h13.1c0,7,4.2,10.5,12.5,10.5,3.1,0,5.6-.6,7.3-1.9A6,6,0,0,0,236,143.2Z"/><path d="M126,115.8s10.2-.9,10.2,9.3S126,134,126,134v7.9s18.7,1.1,18.7-16.8S126,107.2,126,107.2Z"/></svg>