<svg id="Layer_1" data-name="Layer 1" xmlns="http://www.w3.org/2000/svg" width="64" height="64" viewBox="0 0 64 64"><title>logo-64</title><path d="M6.8,22.6l4,11.6,4.1-11.6h4.3V38.5H15.9V34.2l.4-7.5L12,38.5H9.7L5.4,26.7l.4,7.5v4.3H2.5V22.6Z"/><path d="M32.8,22.6V33.1a5.3,5.3,0,0,1-1.7,4.1,6.4,6.4,0,0,1-4.4,1.6,6.4,6.4,0,0,1-4.5-1.5,5.7,5.7,0,0,1-1.6-4.1V22.6h3.2V33.1a3,3,0,0,0,.8,2.3,2.8,2.8,0,0,0,2.1.7c1.8,0,2.7-.9,2.8-2.9V22.6Z"/><path d="M50,36.5a5.8,5.8,0,0,1-2.5,1.7,10.5,10.5,0,0,1-3.6.6,6.6,6.6,0,0,1-6-3.6,9.4,9.4,0,0,1-.9-4V30.1a10.3,10.3,0,0,1,.8-4.1,6.3,6.3,0,0,1,2.4-2.7,6.5,6.5,0,0,1,3.5-.9,6.4,6.4,0,0,1,4.4,1.4A5.6,5.6,0,0,1,50,27.7H46.8a3.4,3.4,0,0,0-.9-2,3.3,3.3,0,0,0-2.1-.6,3.1,3.1,0,0,0-2.6,1.2,7.7,7.7,0,0,0-.8,3.8v1a6.3,6.3,0,0,0,.9,3.7,3.2,3.2,0,0,0,2.8,1.3,3.3,3.3,0,0,0,2.6-.8V32.6h-3V30.2H50Z"/><path d="M59.6,34.4a2,2,0,0,0-.7-1.5,10,10,0,0,0-2.4-1,18.6,18.6,0,0,1-2.7-1.1q-2.7-1.5-2.7-3.9a3.6,3.6,0,0,1,.8-2.3A3.9,3.9,0,0,1,54,23a7.8,7.8,0,0,1,6,0,5.3,5.3,0,0,1,2.1,1.8,4.3,4.3,0,0,1,.7,2.5H59.6a2.4,2.4,0,0,0-.7-1.7,3.6,3.6,0,0,0-3.8-.1,1.6,1.6,0,0,0-.7,1.4,1.7,1.7,0,0,0,.8,1.3,10.4,10.4,0,0,0,2.3,1,9.8,9.8,0,0,1,4.1,2,4.5,4.5,0,0,1,1.2,3.1,4,4,0,0,1-1.5,3.3,7,7,0,0,1-4.2,1.2,9.4,9.4,0,0,1-3.4-.7,6.2,6.2,0,0,1-2.3-1.9,4.6,4.6,0,0,1-.8-2.7h3.3c0,1.8,1.1,2.7,3.2,2.7a3,3,0,0,0,1.8-.5A1.7,1.7,0,0,0,59.6,34.4Z"/><path d="M32,27.5a2.2,2.2,0,0,1,2.5,2.3A2.2,2.2,0,0,1,32,32.1V34s4.7.3,4.7-4.2S32,25.4,32,25.4Z"/></svg>