<?xml version="1.0" encoding="utf-8"?>
<!-- Generator: Adobe Illustrator 22.1.0, SVG Export Plug-In . SVG Version: 6.00 Build 0)  -->
<svg version="1.1" id="Layer_1" xmlns="http://www.w3.org/2000/svg" xmlns:xlink="http://www.w3.org/1999/xlink" x="0px" y="0px"
	 viewBox="0 0 240.9 65.2" style="enable-background:new 0 0 240.9 65.2;" xml:space="preserve">
<path d="M17,0.9l16.3,46l16.2-46h17.2v63.4H53.6V47l1.3-29.9L37.8,64.3h-9L11.7,17.1L13,47v17.3H0V0.9H17z M120.8,0.9v41.8
	c0,6.9-2.2,12.4-6.5,16.5s-10.3,6-17.8,6s-13.3-1.9-17.7-5.9s-6.5-9.3-6.6-16.1V0.9h13v41.9c0,4.1,1,7.2,3,9.1s4.8,2.8,8.3,2.8
	c7.3,0,11.1-3.9,11.2-11.6V0.9H120.8z M189.7,56.3c-2.7,3-6.2,5.3-10,6.6c-4.6,1.6-9.4,2.3-14.3,2.3c-5,0.1-10-1.1-14.4-3.6
	c-4.2-2.4-7.5-6-9.6-10.4c-2.4-5-3.6-10.5-3.5-16.1v-4.3c-0.1-5.7,1-11.3,3.2-16.5c1.9-4.4,5.2-8.1,9.3-10.6
	c4.3-2.6,9.1-3.8,14.1-3.7c7.5,0,13.4,1.8,17.6,5.4s6.8,8.8,7.6,15.7H177c-0.6-3.7-1.9-6.3-3.9-8s-4.7-2.5-8.2-2.5s-7.8,1.6-10.2,5
	s-3.5,8.3-3.5,14.9v4c0,6.7,1.3,11.7,3.8,15.1s6.2,5.1,11.1,5.1s8.4-1,10.5-3.1v-11h-11.9V31h25L189.7,56.3z M227.8,47.7
	c0.2-2.2-0.8-4.4-2.6-5.7c-1.7-1.3-4.9-2.7-9.4-4.2c-3.7-1.1-7.3-2.6-10.8-4.3c-7.2-3.9-10.8-9.2-10.8-15.7c0-3.3,1-6.5,2.9-9.2
	c2.1-2.8,5-5,8.3-6.3c3.9-1.6,8-2.3,12.2-2.3c4.2-0.1,8.3,0.8,12.1,2.5c3.4,1.4,6.3,3.8,8.3,6.9c2,3,3,6.6,2.9,10.2h-13
	c0.1-2.6-0.9-5.1-2.8-6.8c-1.8-1.6-4.4-2.4-7.7-2.4s-5.7,0.7-7.4,2.1c-1.7,1.2-2.8,3.2-2.7,5.3c0,2.2,1.2,4.2,3.1,5.2
	c2.9,1.7,6,3,9.2,3.9c7.4,2.2,12.8,5,16.2,8.3c3.4,3.2,5.2,7.7,5.1,12.4c0,5.5-2,9.8-6.2,12.9s-9.7,4.7-16.8,4.7
	c-4.6,0.1-9.1-0.9-13.3-2.7c-3.7-1.5-6.9-4.1-9.2-7.3c-2.1-3.2-3.2-7-3.1-10.8h13.1c0,7,4.2,10.5,12.5,10.5c3.1,0,5.6-0.6,7.3-1.9
	C226.9,51.8,227.9,49.8,227.8,47.7L227.8,47.7z"/>
<path d="M117.8,20.3c0,0,10.2-0.9,10.2,9.3s-10.2,8.9-10.2,8.9v7.9c0,0,18.7,1.1,18.7-16.8s-18.7-17.9-18.7-17.9V20.3z"/>
</svg>
