<svg id="Layer_1" data-name="Layer 1" xmlns="http://www.w3.org/2000/svg" width="16" height="16" viewBox="0 0 16 16"><title>logo-16</title><path d="M1.5,6,2.6,8.9,3.6,6H4.7v4H3.9V7l-1,3H2.3L1.2,7v3H.5V6Z"/><path d="M8.1,6V8.6a1.4,1.4,0,0,1-.4,1.1,2.1,2.1,0,0,1-1.1.4,1.6,1.6,0,0,1-1.1-.4,1.4,1.4,0,0,1-.5-1V6h.9V8.6c0,.3,0,.5.1.6l.6.2a.7.7,0,0,0,.7-.7V6Z"/><path d="M12.5,9.5l-.7.4-.9.2L10,9.8a.9.9,0,0,1-.6-.6,3.6,3.6,0,0,1-.2-1.1V7.9a2,2,0,0,1,.2-1.1.9.9,0,0,1,.6-.6,1.2,1.2,0,0,1,.9-.3,1.5,1.5,0,0,1,1.1.4,1.9,1.9,0,0,1,.5,1h-.9a.6.6,0,0,0-.2-.5l-.5-.2a.9.9,0,0,0-.7.3,2.2,2.2,0,0,0-.2,1v.2a1.5,1.5,0,0,0,.3,1,.8.8,0,0,0,.7.3.8.8,0,0,0,.6-.2V8.5h-.7V7.9h1.6Z"/><path d="M14.9,8.9l-.2-.3-.6-.3L13.4,8a1.1,1.1,0,0,1-.7-.9.8.8,0,0,1,.2-.6,1,1,0,0,1,.5-.4l.8-.2.8.2a1,1,0,0,1,.5.4,1.4,1.4,0,0,1,.2.7h-.8a.8.8,0,0,0-.2-.5h-1c-.1.1-.1.2-.1.4s0,.2.2.3l.5.2c.5.2.9.3,1.1.6a.9.9,0,0,1,.3.7,1,1,0,0,1-.4.9,1.8,1.8,0,0,1-1.1.3l-.8-.2a1,1,0,0,1-.6-.5,1.4,1.4,0,0,1-.2-.7h.8c0,.5.3.7.8.7h.5A.5.5,0,0,0,14.9,8.9Z"/><path d="M7.9,7.2s.7,0,.7.6-.7.6-.7.6v.5s1.2,0,1.2-1.1S7.9,6.7,7.9,6.7Z"/></svg>