<svg xmlns="http://www.w3.org/2000/svg" viewBox="0 0 30.1 8.2" width="30.1" height="8.2"><path d="M2.1.2l2.1 5.7 2-5.7h2.1v7.9H6.7V5.9l.2-3.7-2.2 5.9H3.6L1.4 2.2l.2 3.7v2.2H0V.2h2.1zm13 0v5.2c0 .8-.3 1.5-.8 2-.6.5-1.4.8-2.2.8-.8.1-1.6-.2-2.3-.7-.5-.6-.8-1.3-.8-2.1V.2h1.6v5.2c0 .4.1.8.4 1.1.3.3.7.4 1.1.4.9 0 1.3-.5 1.4-1.5V.2h1.6zm8.6 6.9c-.3.3-.8.6-1.2.8-.6.2-1.2.3-1.8.3-.6 0-1.2-.1-1.8-.4-.5-.3-.9-.8-1.2-1.4-.3-.6-.5-1.3-.5-2v-.5c0-.7.2-1.4.4-2.1.3-.5.7-1 1.2-1.3.5-.3 1.2-.5 1.8-.5.8 0 1.6.2 2.2.7.5.5.9 1.2.9 2h-1.6c0-.4-.2-.8-.5-1-.3-.2-.6-.3-1-.3-.5 0-1 .2-1.3.6-.3.6-.4 1.2-.4 1.9v.5c0 .6.1 1.3.5 1.8.3.5.8.7 1.4.7.5.1.9-.1 1.3-.4V5.1h-1.5V3.9h3.1v3.2zM28.5 6c0-.3-.1-.5-.3-.7-.4-.2-.8-.4-1.2-.5l-1.4-.6c-.8-.3-1.3-1.1-1.3-1.9 0-.4.1-.9.4-1.2.2-.4.6-.6 1-.8.5-.2 1-.3 1.5-.3 1 0 2 .4 2.6 1.2.2.4.3.8.3 1.3h-1.6c0-.3-.1-.7-.3-.9-.3-.2-.6-.3-1-.3-.3 0-.7.1-.9.3-.2.1-.4.4-.4.7 0 .2.2.4.4.6.4.2.8.4 1.2.5.7.2 1.4.5 2 1 .4.4.6 1 .6 1.6 0 .6-.2 1.2-.7 1.6-.6.4-1.4.6-2.1.6-.6 0-1.2-.1-1.7-.3-.5-.3-.9-.6-1.2-1-.3-.4-.4-.8-.4-1.3h1.7c0 .9.5 1.3 1.6 1.3l.9-.2c.2-.2.3-.4.3-.7z"/><path d="M14.7 2.6S16 2.5 16 3.7c0 .7-.5 1.2-1.2 1.2h-.1v.9s2.4.2 2.4-2.1-2.4-2.2-2.4-2.2v1.1z"/></svg>