<svg xmlns="http://www.w3.org/2000/svg" viewBox="0 0 15.2 4.2" width="15.2" height="4.2"><path d="M1 .1L2.1 3l1-2.9h1.1v4h-.8v-3l-1 3h-.6l-1.1-3v3H0v-4h1zm6.6 0v2.6c0 .4-.1.8-.4 1.1-.3.2-.7.4-1.1.4-.4 0-.8-.1-1.1-.4-.3-.2-.5-.6-.5-1V.1h.9v2.6c0 .3 0 .5.1.6l.6.2c.4 0 .7-.3.7-.7V.1h.8zM12 3.6l-.7.4-.9.2-.9-.3c-.3-.1-.5-.3-.6-.6-.1-.3-.2-.7-.2-1.1V2c0-.4 0-.8.2-1.1.1-.3.3-.5.6-.6.2-.2.6-.3.9-.3.4 0 .8.1 1.1.4.3.3.4.6.5 1h-.9c0-.2-.1-.4-.2-.5l-.5-.2c-.3 0-.5.1-.7.3-.1.3-.2.7-.2 1v.2c0 .4.1.7.3 1 .2.2.4.3.7.3.2 0 .4-.1.6-.2v-.7h-.7V2H12v1.6zm2.4-.6l-.2-.3-.6-.3-.7-.3c-.4-.1-.7-.5-.7-.9 0-.2.1-.4.2-.6.1-.2.3-.3.5-.4l.8-.2.8.2c.2.1.4.2.5.4.1.2.2.5.2.7h-.8c0-.2-.1-.4-.2-.5h-1c-.1.1-.1.2-.1.4s0 .2.2.3l.5.2c.5.2.9.3 1.1.6.2.2.3.4.3.7 0 .3-.1.7-.4.9-.3.2-.7.3-1.1.3l-.8-.2c-.3-.1-.5-.3-.6-.5-.1-.2-.2-.5-.2-.7h.8c0 .5.3.7.8.7h.5c.2-.1.2-.3.2-.5z"/><path d="M7.4 1.3s.7 0 .7.6-.7.6-.7.6V3s1.2 0 1.2-1.1S7.4.8 7.4.8v.5z"/></svg>