<svg xmlns="http://www.w3.org/2000/svg" width="32" height="32" viewBox="0 0 32 32"><path d="M3.2 11.6l2.1 5.7 2-5.7h2.1v7.9H7.8v-2.2l.2-3.7-2.2 5.9H4.7l-2.2-5.9.2 3.7v2.2H1.1v-7.9zm13 0v5.2a2.6 2.6 0 0 1-.8 2 3.3 3.3 0 0 1-2.2.8 3.3 3.3 0 0 1-2.3-.7 2.9 2.9 0 0 1-.8-2.1v-5.2h1.6v5.2a1.6 1.6 0 0 0 .4 1.1 1.4 1.4 0 0 0 1.1.4c.9 0 1.3-.5 1.4-1.5v-5.2zm8.6 6.9a3.6 3.6 0 0 1-1.2.8 5.7 5.7 0 0 1-1.8.3 3.4 3.4 0 0 1-1.8-.4 3.3 3.3 0 0 1-1.2-1.4 3.9 3.9 0 0 1-.5-2v-.5a6.5 6.5 0 0 1 .4-2.1 3.7 3.7 0 0 1 1.2-1.3 3.5 3.5 0 0 1 1.8-.5 3.8 3.8 0 0 1 2.2.7 3.1 3.1 0 0 1 .9 2h-1.6a1.1 1.1 0 0 0-.5-1 1.3 1.3 0 0 0-1-.3 1.6 1.6 0 0 0-1.3.6 4.1 4.1 0 0 0-.4 1.9v.5a3 3 0 0 0 .5 1.8 1.5 1.5 0 0 0 1.4.7 1.7 1.7 0 0 0 1.3-.4v-1.4h-1.5v-1.2h3.1zm4.8-1.1a.9.9 0 0 0-.3-.7 3.5 3.5 0 0 0-1.2-.5l-1.4-.6a2.1 2.1 0 0 1-1.3-1.9 1.6 1.6 0 0 1 .4-1.2 2.1 2.1 0 0 1 1-.8 3.7 3.7 0 0 1 1.5-.3 3.1 3.1 0 0 1 2.6 1.2 2.8 2.8 0 0 1 .3 1.3h-1.6a1.2 1.2 0 0 0-.3-.9 1.7 1.7 0 0 0-1-.3 1.2 1.2 0 0 0-.9.3.8.8 0 0 0-.4.7c0 .2.2.4.4.6a3.3 3.3 0 0 0 1.2.5 5.3 5.3 0 0 1 2 1 2.5 2.5 0 0 1 .6 1.6 1.9 1.9 0 0 1-.7 1.6 3.7 3.7 0 0 1-2.1.6 4.3 4.3 0 0 1-1.7-.3 4 4 0 0 1-1.2-1 2.5 2.5 0 0 1-.4-1.3h1.7c0 .9.5 1.3 1.6 1.3l.9-.2a.9.9 0 0 0 .3-.7z"/><path d="M15.8 14s1.3-.1 1.3 1.1a1.2 1.2 0 0 1-1.3 1.2v.9s2.4.2 2.4-2.1-2.4-2.2-2.4-2.2z"/></svg>