<svg xmlns="http://www.w3.org/2000/svg" viewBox="0 0 240.9 65.2" width="240.9" height="65.2"><path d="M17 .9l16.3 46L49.5.9h17.2v63.4H53.6V47l1.3-29.9-17.1 47.2h-9L11.7 17.1 13 47v17.3H0V.9h17zm103.8 0v41.8c0 6.9-2.2 12.4-6.5 16.5s-10.3 6-17.8 6-13.3-1.9-17.7-5.9-6.5-9.3-6.6-16.1V.9h13v41.9c0 4.1 1 7.2 3 9.1s4.8 2.8 8.3 2.8c7.3 0 11.1-3.9 11.2-11.6V.9h13.1zm68.9 55.4c-2.7 3-6.2 5.3-10 6.6-4.6 1.6-9.4 2.3-14.3 2.3-5 .1-10-1.1-14.4-3.6-4.2-2.4-7.5-6-9.6-10.4-2.4-5-3.6-10.5-3.5-16.1v-4.3c-.1-5.7 1-11.3 3.2-16.5 1.9-4.4 5.2-8.1 9.3-10.6 4.3-2.6 9.1-3.8 14.1-3.7 7.5 0 13.4 1.8 17.6 5.4s6.8 8.8 7.6 15.7H177c-.6-3.7-1.9-6.3-3.9-8s-4.7-2.5-8.2-2.5-7.8 1.6-10.2 5-3.5 8.3-3.5 14.9v4c0 6.7 1.3 11.7 3.8 15.1s6.2 5.1 11.1 5.1 8.4-1 10.5-3.1v-11h-11.9V31h25v25.3zm38.1-8.6c.2-2.2-.8-4.4-2.6-5.7-1.7-1.3-4.9-2.7-9.4-4.2-3.7-1.1-7.3-2.6-10.8-4.3-7.2-3.9-10.8-9.2-10.8-15.7 0-3.3 1-6.5 2.9-9.2 2.1-2.8 5-5 8.3-6.3 3.9-1.6 8-2.3 12.2-2.3 4.2-.1 8.3.8 12.1 2.5 3.4 1.4 6.3 3.8 8.3 6.9 2 3 3 6.6 2.9 10.2h-13c.1-2.6-.9-5.1-2.8-6.8-1.8-1.6-4.4-2.4-7.7-2.4s-5.7.7-7.4 2.1c-1.7 1.2-2.8 3.2-2.7 5.3 0 2.2 1.2 4.2 3.1 5.2 2.9 1.7 6 3 9.2 3.9 7.4 2.2 12.8 5 16.2 8.3 3.4 3.2 5.2 7.7 5.1 12.4 0 5.5-2 9.8-6.2 12.9s-9.7 4.7-16.8 4.7c-4.6.1-9.1-.9-13.3-2.7-3.7-1.5-6.9-4.1-9.2-7.3-2.1-3.2-3.2-7-3.1-10.8h13.1c0 7 4.2 10.5 12.5 10.5 3.1 0 5.6-.6 7.3-1.9 1.7-1.2 2.7-3.2 2.6-5.3z"/><path d="M117.8 20.3s10.2-.9 10.2 9.3-10.2 8.9-10.2 8.9v7.9s18.7 1.1 18.7-16.8-18.7-17.9-18.7-17.9v8.6z"/></svg>